Patient4_TMGait_0pt6_02_left_23_GRF.mot
version=1
nRows=58
nColumns=19
inDegrees=no
endheader
time	F1x	F1y	F1z	M1x	M1y	M1z	F2x	F2y	F2z	M2x	M2y	M2z	EC1x	EC1y	EC1z	EC2x	EC2y	EC2z
28.15	-11.325	-0.12949	1.3812	-1.1494	-5.891	0.18639	-8.9178	753.7185	-47.8667	317.9729	57.2425	812.4014	-0.0592	0.0182	-0.0073	-0.0462	0.0165	0.9585
28.162	-7.6473	0.79883	1.087	-1.1191	-4.1753	1.1115	-9.6419	748.1376	-50.0474	316.4145	59.1825	802.2308	-0.0592	0.0182	-0.0073	-0.0462	0.0165	0.9585
28.174	-4.5399	1.6236	0.78699	-1.0872	-2.666	1.938	-9.4486	743.6935	-51.6507	315.3145	60.1461	792.4217	-0.0592	0.0182	-0.0073	-0.0462	0.0165	0.9585
28.186	-2.1709	2.3006	0.52649	-1.0657	-1.4769	2.6257	-8.3999	740.9745	-52.6547	314.8761	60.1515	783.8354	-0.0592	0.0182	-0.0073	-0.0462	0.0165	0.9585
28.198	-0.54002	2.8321	0.31884	-1.0604	-0.62404	3.1897	-6.7162	740.1998	-53.1198	315.1653	59.3658	776.9707	-0.0592	0.0182	-0.0073	-0.0462	0.0165	0.9585
28.21	0.45808	3.221	0.15947	-1.0668	-0.063115	3.6191	-4.6798	741.2987	-53.1926	316.1299	58.0597	772.0288	-0.0592	0.0182	-0.0073	-0.0462	0.0165	0.9585
28.222	0.95044	3.4733	0.046625	-1.0733	0.25695	3.9247	-2.5582	743.9071	-52.9948	317.6038	56.4682	768.8654	-0.0592	0.0182	-0.0073	-0.0462	0.0165	0.9585
28.234	1.0951	3.5708	-0.033389	-1.0612	0.40716	4.0739	-0.56462	747.4575	-52.6558	319.3356	54.8109	767.0703	-0.0592	0.0182	-0.0073	-0.0462	0.0165	0.9585
28.246	1.0064	3.4743	-0.078681	-1.0054	0.43049	4.0115	1.155	751.2302	-52.2736	321.0169	53.248	766.0118	-0.0592	0.0182	-0.0073	-0.0462	0.0165	0.9585
28.258	0.77823	3.1181	-0.10162	-0.87578	0.37452	3.6383	2.5382	754.4566	-51.9071	322.3276	51.8649	764.9545	-0.0592	0.0182	-0.0073	-0.0462	0.0165	0.9585
28.27	0.48395	2.4101	-0.10159	-0.6358	0.26391	2.8481	3.6137	756.4557	-51.592	322.9917	50.6872	763.2013	-0.0592	0.0182	-0.0073	-0.0462	0.0165	0.9585
28.282	0.17326	1.251	-0.092228	-0.24878	0.13435	1.5161	4.4693	756.7512	-51.3228	322.8261	49.6764	760.2148	-0.0592	0.0182	-0.0073	-0.0462	0.0165	0.9585
28.294	-0.10401	-0.43222	-0.075467	0.31273	0.010699	-0.45085	5.2325	755.0906	-51.1157	321.7431	48.8016	755.6525	-0.0592	0.0182	-0.0073	-0.0462	0.0165	0.9585
28.306	-0.27852	-2.6577	-0.069075	1.056	-0.061422	-3.0748	6.0386	751.3834	-50.983	319.7248	48.0217	749.322	-0.0592	0.0182	-0.0073	-0.0462	0.0165	0.9585
28.318	-0.26479	-5.319	-0.084225	1.9457	-0.041084	-6.2356	7.0213	745.6993	-50.9696	316.8185	47.3222	741.1999	-0.0592	0.0182	-0.0073	-0.0462	0.0165	0.9585
28.33	0.045198	-8.108	-0.14062	2.8754	0.1309	-9.5685	8.2608	738.3113	-51.077	313.1527	46.6649	731.4751	-0.0592	0.0182	-0.0073	-0.0462	0.0165	0.9585
28.342	0.79229	-10.4163	-0.25235	3.6354	0.51845	-12.3521	9.7946	729.6949	-51.3261	308.9341	46.046	720.5502	-0.0592	0.0182	-0.0073	-0.0462	0.0165	0.9585
28.354	2.1062	-11.2394	-0.42987	3.8793	1.1853	-13.3964	11.6046	720.4831	-51.7152	304.4279	45.4633	709.0014	-0.0592	0.0182	-0.0073	-0.0462	0.0165	0.9585
28.366	4.1143	-9.1006	-0.68447	3.0998	2.1884	-10.9576	13.6408	711.3464	-52.2626	299.9118	44.9429	697.4663	-0.0592	0.0182	-0.0073	-0.0462	0.0165	0.9585
28.378	6.859	-2.0136	-1.001	0.61798	3.5256	-2.6869	15.8605	702.8253	-52.9559	295.6132	44.4782	686.4722	-0.0592	0.0182	-0.0073	-0.0462	0.0165	0.9585
28.39	10.2502	12.401	-1.3494	-4.3799	5.1196	14.2245	18.2178	695.1403	-53.7378	291.6346	44.0189	676.2523	-0.0592	0.0182	-0.0073	-0.0462	0.0165	0.9585
28.402	13.9359	36.6593	-1.6514	-12.7499	6.7505	42.7692	20.6807	688.0335	-54.4892	287.8877	43.4609	666.5923	-0.0592	0.0182	-0.0073	-0.0462	0.0165	0.9585
28.414	17.2183	72.852	-1.7887	-25.2025	8.0254	85.432	23.1991	680.6512	-55.0172	284.0475	42.646	656.7299	-0.0592	0.0182	-0.0073	-0.0462	0.0165	0.9585
28.426	18.8725	121.7423	-1.5739	-41.9864	8.2957	143.1527	25.6909	671.5633	-55.078	279.5553	41.3865	645.3706	-0.0592	0.0182	-0.0073	-0.0462	0.0165	0.9585
28.438	17.2299	181.5883	-0.73667	-62.4906	6.6717	213.9032	28.0388	658.9456	-54.3978	273.6877	39.4861	630.8563	-0.0592	0.0182	-0.0073	-0.0462	0.0165	0.9585
28.45	11.1693	247.5466	1.049	-85.031	2.4022	292.0033	30.0938	640.8592	-52.7418	265.6737	36.8023	611.4224	-0.0592	0.0182	-0.0073	-0.0462	0.0165	0.9585
28.462	1.8334	312.0914	4.2394	-106.9972	-4.6367	368.4447	31.7178	615.6935	-49.9736	254.8696	33.2922	585.604	-0.0592	0.0182	-0.0073	-0.0462	0.0165	0.9585
28.474	-8.104	368.1582	9.3335	-125.9447	-14.0296	434.544	32.8012	582.5348	-46.1473	240.9077	29.0815	552.5641	-0.0592	0.0182	-0.0073	-0.0462	0.0165	0.9585
28.486	-16.9243	413.1541	15.5157	-141.0097	-24.2388	486.9195	33.2628	541.4454	-41.4756	223.7972	24.4199	512.3738	-0.0592	0.0182	-0.0073	-0.0462	0.0165	0.9585
28.498	-23.6765	448.6875	21.9204	-152.7887	-33.9326	527.317	33.0831	493.3771	-36.3296	203.8956	19.6621	465.9256	-0.0592	0.0182	-0.0073	-0.0462	0.0165	0.9585
28.51	-28.0589	477.9702	27.7085	-162.4461	-42.0452	559.6372	32.2782	439.9282	-31.0843	181.8262	15.1304	414.7137	-0.0592	0.0182	-0.0073	-0.0462	0.0165	0.9585
28.522	-30.2035	504.0112	32.3258	-171.0583	-48.0046	587.5701	30.8487	383.1249	-25.9805	158.3973	11.0264	360.6268	-0.0592	0.0182	-0.0073	-0.0462	0.0165	0.9585
28.534	-30.5547	528.7548	35.6741	-179.3066	-51.8437	613.5406	28.7492	325.1732	-21.1702	134.5009	7.4901	305.7156	-0.0592	0.0182	-0.0073	-0.0462	0.0165	0.9585
28.546	-29.5843	553.3116	37.7851	-187.554	-53.7945	638.9254	25.9379	268.3098	-16.7306	111.047	4.5982	252.044	-0.0592	0.0182	-0.0073	-0.0462	0.0165	0.9585
28.558	-27.8231	578.3749	39.1464	-195.9781	-54.5796	664.6597	22.444	214.6644	-12.7678	88.9043	2.4282	201.5711	-0.0592	0.0182	-0.0073	-0.0462	0.0165	0.9585
28.57	-25.7645	604.3538	40.1019	-204.6592	-54.7801	691.2932	18.4675	166.0907	-9.3794	68.832	0.98572	155.9792	-0.0592	0.0182	-0.0073	-0.0462	0.0165	0.9585
28.582	-23.8749	631.2732	41.2335	-213.541	-55.19	718.9677	14.3375	123.9242	-6.6497	51.382	0.2106	116.4717	-0.0592	0.0182	-0.0073	-0.0462	0.0165	0.9585
28.594	-22.5506	658.6763	42.8015	-222.4386	-56.2479	747.1932	10.4179	88.8163	-4.5842	36.8322	-0.039822	83.6007	-0.0592	0.0182	-0.0073	-0.0462	0.0165	0.9585
28.606	-22.0426	685.9313	45.0719	-231.1287	-58.3173	775.2799	6.942	60.7595	-3.1068	25.19	0.066177	57.3373	-0.0592	0.0182	-0.0073	-0.0462	0.0165	0.9585
28.618	-22.3012	712.5189	47.8333	-239.4652	-61.1675	802.5988	4.0453	39.2185	-2.0923	16.2486	0.35744	37.1692	-0.0592	0.0182	-0.0073	-0.0462	0.0165	0.9585
28.63	-23.1224	737.8433	50.8247	-247.2871	-64.446	828.4274	1.7649	23.3852	-1.3945	9.6789	0.67926	22.3549	-0.0592	0.0182	-0.0073	-0.0462	0.0165	0.9585
28.642	-24.285	760.9689	53.7249	-254.3254	-67.7283	851.6566	0.14666	12.3133	-0.88753	5.0921	0.89995	12.0004	-0.0592	0.0182	-0.0073	-0.0462	0.0165	0.9585
28.654	-25.52	780.795	56.4178	-260.2396	-70.7896	871.0483	-0.83361	5.0864	-0.49502	2.1054	0.9574	5.2515	-0.0592	0.0182	-0.0073	-0.0462	0.0165	0.9585
28.666	-26.6305	796.2788	58.8396	-264.7014	-73.4849	885.4537	-1.256	0.8419	-0.19701	0.3599	0.86861	1.2815	-0.0592	0.0182	-0.0073	-0.0462	0.0165	0.9585
28.678	-27.4504	806.6731	60.9216	-267.4746	-75.6864	894.0487	-1.3278	-1.2014	0.0060288	-0.47463	0.71365	-0.63275	-0.0592	0.0182	-0.0073	-0.0462	0.0165	0.9585
28.69	-27.8548	811.6769	62.6135	-268.4704	-77.2973	896.545	-1.1801	-1.7817	0.12475	-0.7044	0.53883	-1.1901	-0.0592	0.0182	-0.0073	-0.0462	0.0165	0.9585
28.702	-27.7232	811.5029	63.7895	-267.7758	-78.1572	893.2029	-0.95168	-1.4884	0.17961	-0.57615	0.37826	-0.91789	-0.0592	0.0182	-0.0073	-0.0462	0.0165	0.9585
28.714	-27.0014	806.8724	64.4842	-265.6378	-78.277	884.8571	-0.7026	-0.76646	0.18517	-0.27355	0.2473	-0.23747	-0.0592	0.0182	-0.0073	-0.0462	0.0165	0.9585
28.726	-25.6268	798.8375	64.7012	-262.4111	-77.6485	872.6667	-0.48758	0.10041	0.16515	0.084095	0.14577	0.59378	-0.0592	0.0182	-0.0073	-0.0462	0.0165	0.9585
28.738	-23.6546	788.5982	64.6151	-258.4855	-76.4687	857.9844	-0.31338	0.92316	0.13159	0.42151	0.071264	1.3905	-0.0592	0.0182	-0.0073	-0.0462	0.0165	0.9585
28.75	-21.1874	777.3279	64.3028	-254.2475	-74.8672	842.1011	-0.18973	1.6257	0.097707	0.70658	0.019836	2.0891	-0.0592	0.0182	-0.0073	-0.0462	0.0165	0.9585
28.762	-18.4041	766.0934	63.9364	-250.0404	-73.085	826.2196	-0.10831	2.1704	0.063318	0.92641	-0.0082054	2.6406	-0.0592	0.0182	-0.0073	-0.0462	0.0165	0.9585
28.774	-15.4942	755.7877	63.5522	-246.1557	-71.2349	811.3089	-0.06012	2.5754	0.041322	1.088	-0.02416	3.0516	-0.0592	0.0182	-0.0073	-0.0462	0.0165	0.9585
28.786	-12.671	747.0664	63.2411	-242.8053	-69.4832	798.0939	-0.036549	2.8659	0.025379	1.203	-0.026418	3.3461	-0.0592	0.0182	-0.0073	-0.0462	0.0165	0.9585
28.798	-10.0764	740.3015	62.9811	-240.1183	-67.861	786.9617	-0.027883	3.0725	0.02033	1.286	-0.02558	3.5586	-0.0592	0.0182	-0.0073	-0.0462	0.0165	0.9585
28.81	-7.8152	735.5919	62.7738	-238.1324	-66.4034	778.0002	-0.036641	3.2127	0.017569	1.3458	-0.01645	3.712	-0.0592	0.0182	-0.0073	-0.0462	0.0165	0.9585
28.822	-5.9065	732.8123	62.5713	-236.8173	-65.0703	771.0279	-0.061855	3.2916	0.018671	1.3841	-0.0030856	3.8023	-0.0592	0.0182	-0.0073	-0.0462	0.0165	0.9585
28.834	-4.2922	731.6669	62.3429	-236.0832	-63.8141	765.687	-0.11542	3.3046	0.019751	1.3959	0.020255	3.8151	-0.0592	0.0182	-0.0073	-0.0462	0.0165	0.9585
